<?xml version="1.0" encoding="UTF-8"?>
<svg version="1.1" xmlns="http://www.w3.org/2000/svg" width="512" height="512">
<path d="M0 0 C0.80364314 -0.00467997 1.60728627 -0.00935994 2.43528223 -0.01418173 C5.12584639 -0.02613898 7.81590187 -0.01667141 10.50646973 -0.00723267 C12.43683164 -0.0112983 14.36719122 -0.01664013 16.29754639 -0.02316284 C21.54181551 -0.03685049 26.78590773 -0.03152983 32.03017998 -0.02202559 C37.52541453 -0.01442782 43.02063399 -0.02147574 48.51586914 -0.02618408 C57.75299798 -0.03164496 66.99005493 -0.02444513 76.22717285 -0.01016235 C86.88402395 0.00612613 97.54070251 0.00090467 108.19754934 -0.01564157 C117.35872666 -0.02929317 126.51985226 -0.03115702 135.68103647 -0.02332556 C141.14702075 -0.01866423 146.61292421 -0.01798088 152.0789032 -0.02793503 C157.22699723 -0.03665453 162.37487113 -0.03049235 167.52294159 -0.01325226 C169.40417365 -0.00931223 171.28542448 -0.01037843 173.16664886 -0.01704025 C186.58627239 -0.06014889 199.11570137 0.69152704 211.21936035 7.13095093 C211.8962793 7.4802063 212.57319824 7.82946167 213.27062988 8.18930054 C218.6583757 11.04479289 223.29921117 14.47003205 227.96936035 18.38095093 C241.40756305 28.90064607 254.39881145 29.45673278 270.97717285 29.69735718 C272.18380585 29.71813828 273.39043884 29.73891937 274.63363647 29.7603302 C278.45382491 29.82524105 282.27407674 29.88443646 286.09436035 29.94345093 C288.69853334 29.98669186 291.30270012 30.03030785 293.90686035 30.0743103 C300.26096176 30.18086175 306.61512497 30.2827321 312.96936035 30.38095093 C312.94841309 29.77621948 312.92746582 29.17148804 312.90588379 28.5484314 C312.8222709 25.78444321 312.77055981 23.0207218 312.71936035 20.25595093 C312.68584473 19.3046228 312.6523291 18.35329468 312.61779785 17.37313843 C312.53405212 11.34344577 312.95133637 7.96923355 316.96936035 3.38095093 C322.19195892 -0.67535305 327.62276177 -0.39302451 333.96936035 0.38095093 C338.56113052 2.55599995 340.80146807 4.83617765 342.96936035 9.38095093 C343.2532747 12.22735742 343.3743122 14.85089168 343.34967709 17.69441128 C343.354337 18.53243952 343.35899692 19.37046776 343.36379805 20.2338908 C343.37579201 23.05475136 343.36633567 25.87513418 343.35704041 28.69599915 C343.36121139 30.73369264 343.36668761 32.77138381 343.37336022 34.80907065 C343.38786435 40.4186137 343.38355461 46.02801045 343.3761934 51.63756168 C343.37147631 57.68333066 343.38395861 63.72906732 343.39421082 69.77482605 C343.41043665 80.93750812 343.41283819 92.10014468 343.40790582 103.26283231 C343.40335138 113.5751 343.40394441 123.88735026 343.40974617 134.19961739 C343.41050303 135.58206048 343.41125901 136.96450358 343.41201412 138.34694668 C343.41315929 140.43007787 343.41430917 142.51320905 343.41547336 144.59634023 C343.42618087 163.96740829 343.43090102 183.33847053 343.4230032 202.70954037 C343.42270602 203.43999194 343.42240885 204.17044352 343.42210267 204.92303 C343.41965365 210.85508647 343.41704211 216.78714288 343.41441854 222.71919928 C343.40431521 245.86062778 343.41267211 269.00198372 343.43591309 292.1434021 C343.46197396 318.13477537 343.47483679 344.12610496 343.46772534 370.11749178 C343.46700926 372.88781741 343.46633487 375.65814306 343.46568489 378.4284687 C343.46551508 379.110608 343.46534527 379.7927473 343.46517032 380.49555748 C343.46286549 390.80125852 343.47085304 401.10691906 343.48397636 411.41261101 C343.49887091 423.13022751 343.49937787 434.84776525 343.48190545 446.56538551 C343.47336544 452.54683926 343.47131899 458.52811133 343.48655701 464.50955582 C343.50032476 469.98149034 343.49574333 475.4530862 343.47631777 480.92500073 C343.47253305 482.90812021 343.47555022 484.8912663 343.48592942 486.87436222 C343.49900863 489.56387016 343.48759739 492.25219343 343.4699316 494.94164944 C343.47958211 495.71700477 343.48923263 496.49236009 343.49917558 497.29121104 C343.42910246 502.46391019 342.23143219 505.39382972 338.96936035 509.38095093 C333.74676178 513.43725491 328.31595893 513.15492636 321.96936035 512.38095093 C317.3688895 510.20178052 315.18309236 507.90656709 312.96936035 503.38095093 C312.60021687 500.07952404 312.60021687 500.07952404 312.6085968 496.24989319 C312.60603353 495.54325006 312.60347025 494.83660693 312.6008293 494.10855037 C312.59589811 491.74688669 312.61237274 489.385866 312.62878418 487.02426147 C312.6296306 485.32896439 312.62915502 483.6336662 312.62745667 481.93836975 C312.62659586 477.33954253 312.64423541 472.74095002 312.66517854 468.14217734 C312.68393114 463.33488387 312.68569466 458.52758503 312.68925476 453.72026062 C312.69857938 444.61847164 312.72319884 435.51679075 312.75330323 426.41504937 C312.78683422 416.05238887 312.80332998 405.68972321 312.81838953 395.32702196 C312.84974803 374.01159121 312.90476535 352.69630865 312.96936035 331.38095093 C292.83936035 331.38095093 272.70936035 331.38095093 251.96936035 331.38095093 C251.30936035 332.70095093 250.64936035 334.02095093 249.96936035 335.38095093 C248.31466319 337.2845598 246.64496412 339.12008504 244.90686035 340.94345093 C241.26009755 344.83878875 237.75430732 348.78305255 234.40686035 352.94345093 C230.59213423 357.68295914 226.55366604 362.1599409 222.4342041 366.63485718 C220.04228738 369.29970259 217.77681151 372.02926918 215.53186035 374.81845093 C211.87365021 379.35411536 208.0219307 383.63796262 204.05554199 387.90023804 C201.06509036 391.13289068 198.23157028 394.44791859 195.46936035 397.88095093 C192.27004313 401.85724519 188.9435109 405.64763391 185.46936035 409.38095093 C181.17978275 413.99096732 177.16525138 418.75878329 173.2154541 423.66610718 C170.08768856 427.44662379 166.75662152 431.02575968 163.4342041 434.63485718 C161.04228738 437.29970259 158.77681151 440.02926918 156.53186035 442.81845093 C152.87365021 447.35411536 149.0219307 451.63796262 145.05554199 455.90023804 C142.06509036 459.13289068 139.23157028 462.44791859 136.46936035 465.88095093 C132.83436646 470.39872905 129.00225745 474.65913609 125.05529785 478.90048218 C122.06494678 482.1330684 119.23149706 485.44800959 116.46936035 488.88095093 C99.93780695 509.39672763 99.93780695 509.39672763 93.96936035 512.38095093 C88.38542902 512.89086082 83.52883947 513.11965156 78.40686035 510.69345093 C74.95251494 507.41625144 73.14439524 504.91671064 72.59676486 500.11179036 C72.5984736 498.2327443 72.5984736 498.2327443 72.60021687 496.31573772 C72.59502457 495.26113639 72.59502457 495.26113639 72.58972737 494.18522999 C72.58177086 491.82347313 72.5952579 489.46232678 72.6085968 487.1006012 C72.60728883 485.39274191 72.60466255 483.6848832 72.6008293 481.97702771 C72.59411083 477.2793976 72.60613574 472.5819721 72.62116349 467.88436806 C72.63409995 462.8203323 72.62973608 457.75630838 72.62745667 452.69226074 C72.62588242 443.91694078 72.63530746 435.14168766 72.65217018 426.36638451 C72.67653508 413.67872654 72.68436288 400.99110095 72.68813416 388.30342213 C72.69470258 367.71930207 72.71467436 347.13521765 72.74304199 326.55111694 C72.77057244 306.55372293 72.79181099 286.55633858 72.80456543 266.55892944 C72.8053536 265.32661389 72.80614177 264.09429833 72.80695383 262.82463988 C72.81086889 256.64257168 72.81466003 250.46050342 72.81838953 244.27843511 C72.84949762 192.97924909 72.90234407 141.68010174 72.96936035 90.38095093 C71.80680977 90.39273376 71.80680977 90.39273376 70.62077332 90.40475464 C67.07422749 90.4361337 63.527711 90.45551204 59.9810791 90.47470093 C58.76190796 90.48726929 57.54273682 90.49983765 56.28662109 90.51278687 C37.83179582 90.58764166 20.36976096 84.5112622 6.99304199 71.50839233 C5.63921074 70.14497933 4.30380732 68.7633421 2.96936035 67.38095093 C2.2320166 66.67454468 1.49467285 65.96813843 0.73498535 65.24032593 C-11.2074749 53.11271126 -17.26184685 35.0797035 -17.53063965 18.38095093 C-17.55867676 17.17861816 -17.55867676 17.17861816 -17.58728027 15.95199585 C-17.52937196 10.65839631 -16.61858064 7.50954057 -13.03063965 3.38095093 C-8.83640302 0.16717603 -5.10670656 -0.04575103 0 0 Z M15.96936035 30.38095093 C22.96102495 44.36428012 29.86569688 52.87888298 44.53186035 58.19345093 C54.13624219 61.02807751 64.05786464 60.49040303 73.96936035 60.38095093 C74.23748535 59.47216187 74.50561035 58.5633728 74.78186035 57.62704468 C75.17373535 56.37020874 75.56561035 55.1133728 75.96936035 53.81845093 C76.34061035 52.60028687 76.71186035 51.3821228 77.09436035 50.12704468 C79.79834559 43.28258205 83.50619525 36.87438548 86.96936035 30.38095093 C63.53936035 30.38095093 40.10936035 30.38095093 15.96936035 30.38095093 Z M112.96936035 47.38095093 C104.09778315 59.30975241 102.80119438 71.61141554 102.85583496 86.04135132 C102.85568893 87.06679047 102.85554291 88.09222961 102.85539246 89.14874268 C102.85608427 92.50871969 102.86384216 95.86863995 102.8717041 99.22860718 C102.87357088 101.56986969 102.87499356 103.91113259 102.87599182 106.25239563 C102.87979651 112.39258924 102.88960919 118.53275891 102.9006958 124.67294312 C102.91095408 130.94735389 102.91549888 137.22176855 102.92053223 143.4961853 C102.9312334 155.79111765 102.94828507 168.08603229 102.96936035 180.38095093 C104.24745351 179.42399694 105.52532392 178.46674545 106.80310059 177.5093689 C107.51473862 176.97633148 108.22637665 176.44329407 108.95957947 175.894104 C110.52457224 174.71582947 112.07916882 173.52374203 113.6295166 172.32626343 C133.35527883 157.37958831 154.48326348 151.32398949 179.09436035 150.81845093 C181.70135368 150.76060905 184.30790472 150.69529169 186.91467285 150.62704468 C188.05436523 150.60311646 189.19405762 150.57918823 190.36828613 150.55453491 C192.89731811 150.67247751 192.89731811 150.67247751 193.96936035 149.38095093 C194.24750482 147.69496754 194.52013777 146.00790893 194.76647949 144.31698608 C199.73197537 111.21121532 216.40636373 85.46415803 239.96936035 62.38095093 C240.97049221 61.38208407 241.97089292 60.38248115 242.96936035 59.38095093 C241.96518066 59.10122437 240.96100098 58.8214978 239.9263916 58.53329468 C227.87020306 55.05372329 217.42295994 50.60727795 207.84436035 42.25595093 C194.59362098 30.8287078 179.90025417 30.02729239 162.96936035 30.13095093 C161.07443848 30.11934937 161.07443848 30.11934937 159.14123535 30.10751343 C140.70164889 30.14545496 125.78167347 33.22117529 112.96936035 47.38095093 Z M253.15686035 91.69345093 C237.28632768 108.59178952 227.7191314 128.56984369 223.96936035 151.38095093 C223.76311035 152.11958374 223.55686035 152.85821655 223.34436035 153.61923218 C222.84565426 156.37770025 222.87277123 157.76734127 223.96936035 160.38095093 C227.44815988 163.04175004 231.08397764 165.05418289 234.93029785 167.12704468 C240.54162763 170.15916398 245.23439124 174.1363346 249.96936035 178.38095093 C250.66287598 178.99196655 251.3563916 179.60298218 252.07092285 180.23251343 C269.19608382 196.26603067 280.66308277 220.44235289 282.19250488 243.78695679 C282.30917334 247.50847851 282.34909351 251.22010896 282.34436035 254.94345093 C282.34454163 255.92965927 282.34454163 255.92965927 282.34472656 256.93579102 C282.30704228 271.37215851 280.08861018 283.99143598 274.70373535 297.41220093 C273.85286265 299.34305432 273.85286265 299.34305432 273.96936035 301.38095093 C286.83936035 301.38095093 299.70936035 301.38095093 312.96936035 301.38095093 C312.96936035 222.51095093 312.96936035 143.64095093 312.96936035 62.38095093 C290.58419214 62.38095093 268.88436829 76.9123771 253.15686035 91.69345093 Z M122.96936035 204.38095093 C104.51146797 224.83050039 102.80286739 248.84181595 102.85583496 275.10263062 C102.85611748 277.07481891 102.85595783 279.04700732 102.85539246 281.01919556 C102.85510701 286.34063862 102.86096272 291.66205888 102.86796641 296.98349667 C102.8742422 302.55683716 102.87480708 308.13017825 102.87599182 313.70352173 C102.87909272 324.24291897 102.8872893 334.78230577 102.89734131 345.32169843 C102.90854109 357.32658365 102.91402262 369.33146939 102.91903675 381.33635855 C102.92947301 406.01789512 102.9470483 430.69942244 102.96936035 455.38095093 C106.51498871 452.61163626 109.31820525 449.92767379 112.09436035 446.38095093 C115.41648869 442.23104975 118.84677732 438.26490541 122.46936035 434.38095093 C125.94397905 430.64810789 129.27008501 426.85719314 132.46936035 422.88095093 C136.10435425 418.3631728 139.93646325 414.10276577 143.88342285 409.86141968 C146.87377393 406.62883346 149.70722364 403.31389226 152.46936035 399.88095093 C155.66867757 395.90465667 158.9952098 392.11426795 162.46936035 388.38095093 C166.75893795 383.77093454 170.77346932 379.00311857 174.7232666 374.09579468 C177.85103214 370.31527806 181.18209919 366.73614218 184.5045166 363.12704468 C186.89643332 360.46219926 189.16190919 357.73263268 191.40686035 354.94345093 C195.0650705 350.4077865 198.91679001 346.12393923 202.88317871 341.86166382 C205.87363035 338.62901118 208.70715042 335.31398327 211.46936035 331.88095093 C214.66873644 327.90458351 217.99584572 324.11491914 221.46936035 320.38095093 C241.24211368 299.06237776 253.22601131 278.85769732 252.3482666 249.13876343 C251.32337362 229.43126015 241.87163532 212.94884957 228.03186035 199.31845093 C197.18261756 172.22402607 151.45350187 175.75410329 122.96936035 204.38095093 Z " fill="#000000" transform="translate(93.0306396484375,-0.380950927734375)"/>
<path d="M0 0 C4.61581142 2.18643699 6.72864085 4.49599804 9 9 C9.82885269 14.54808604 9.7240695 19.47140883 7.3125 24.5625 C4.21064779 27.8320199 1.61649202 29.75850523 -2.90234375 30.43359375 C-9.05071801 30.44150672 -13.31314296 30.4465054 -18 26 C-21.88937897 20.55860924 -21.79042609 15.48149391 -21 9 C-16.63929544 -0.20593186 -9.3488659 -1.1401056 0 0 Z " fill="#FF6B35" transform="translate(277,60)"/>
</svg>
